<svg xmlns="http://www.w3.org/2000/svg" viewBox="0 0 2156 800"><path d="M1604.3 366.7c0-7.9-6.4-14.3-14.3-14.3s-14.3 6.4-14.3 14.3c0 37.7 41.5 89.4 46.3 95.1 2.8 3.4 7 5.2 11.1 5.2 3.2 0 6.4-1.1 9.1-3.2 6.1-5 7-14.1 2-20.2-15.5-18.7-39.9-56.2-39.9-76.9zm301.2-14.4c-7.9 0-14.3 6.4-14.3 14.3 0 20.7-24.4 58.2-39.8 77-5 6.1-4.1 15.2 2 20.2 2.7 2.2 5.9 3.2 9.1 3.2 4.1 0 8.2-1.8 11.1-5.2 4.7-5.8 46.3-57.5 46.3-95.1-.1-8-6.5-14.4-14.4-14.4zm-157.7 0c-7.9 0-14.3 6.4-14.3 14.3v86c0 7.9 6.4 14.3 14.3 14.3s14.3-6.4 14.3-14.3v-86c0-7.9-6.4-14.3-14.3-14.3z"/><path d="M1905.5 122.9c-8.7 0-17.8 1.1-27.2 2.9-31.6-36.8-78.3-60.3-130.5-60.3s-99 23.4-130.5 60.3c-9.4-1.8-18.5-2.9-27.2-2.9-87 0-157.8 70.8-157.8 157.8 0 59.6 33.6 113.8 86.4 140.6l-.3 216.7c0 15.6 6.1 30.3 17.1 41.4 11.1 11.1 25.8 17.2 41.4 17.2h341.8c32.3 0 58.5-26.2 58.5-58.5V421c52.6-26.9 86-81 86-140.4 0-87-70.7-157.7-157.7-157.7zm43 515.1c0 16.4-13.4 29.8-29.8 29.8h-341.8c-8 0-15.5-3.1-21.1-8.8-5.6-5.6-8.7-13.1-8.7-21.1l.1-56.2h401.4l-.1 56.3zm8.9-239.3c-.8.3-1.5.7-2.1 1.1-1.8 1.1-3.3 2.6-4.4 4.3-1.1 1.7-1.9 3.7-2.2 5.8-.1.8-.2 1.6-.2 2.4v140.8h-401.4l.2-140.6c0-.8 0-1.6-.1-2.4-.3-2.2-1.1-4.2-2.3-5.9-1.1-1.6-2.5-3.1-4.3-4.2-.7-.4-1.5-.8-2.3-1.2-47.1-20.6-77.5-66.9-77.5-118.2 0-71.2 57.9-129.1 129.1-129.1 2.8 0 5.7.3 8.6.6-14.5 25.2-22.9 54.4-22.9 85.5 0 7.9 6.4 14.3 14.3 14.3s14.3-6.4 14.3-14.3c0-79.1 64.3-143.4 143.4-143.4 79.1 0 143.4 64.3 143.4 143.4 0 7.9 6.4 14.3 14.3 14.3s14.3-6.4 14.3-14.3c0-31.1-8.4-60.3-22.9-85.5 2.9-.2 5.8-.6 8.6-.6 71.2 0 129.1 57.9 129.1 129.1.2 51.1-30.1 97.4-77 118.1z"/><path d="M220.9 276.1l58.1 1.5c-3.8 30.1-14.2 53.3-31.2 69.7-17 16.4-39.2 24.6-66.5 24.6-27.8 0-51.1-9.3-69.8-28-18.7-18.6-28.1-41.8-28.1-69.4 0-27.8 9.5-51.2 28.6-70.1 19.1-19 42.6-28.4 70.6-28.4 27.5 0 50.5 9.3 68.9 27.9 12.8 12.9 21.8 30.8 27.1 53.7l-59.5 4c-6.7-20.4-19.3-30.6-37.9-30.6-11.8 0-21.6 4.1-29.3 12.3-7.7 8.2-11.6 18.6-11.6 31.3 0 12.2 3.8 22.3 11.3 30.3 7.6 8 17.1 12 28.7 12 11.8 0 21.1-3.5 28.1-10.5 7.1-7.1 11.2-17.1 12.5-30.3zm176.7-100c26.4 0 49.1 9.6 68 28.8 18.9 19.2 28.4 42.2 28.4 69 0 27.3-9.5 50.4-28.6 69.5-19 19-42.1 28.6-69.4 28.6-27.1 0-50.2-9.6-69.3-28.7S298 301 298 273.9c0-27.3 9.6-50.5 28.9-69.5 19.3-18.9 42.9-28.3 70.7-28.3zM396 231c-11.4 0-21.1 4.2-29.1 12.6-8 8.4-12 18.5-12 30.4 0 11.8 4 22 12.1 30.4 8.1 8.4 17.8 12.6 29.1 12.6 11.5 0 21.2-4.2 29.2-12.5s12-18.5 12-30.4c0-11.9-4-22.1-12-30.4-8.1-8.5-17.8-12.7-29.3-12.7zm216.5-54.9c26.4 0 49.1 9.6 68 28.8 18.9 19.2 28.4 42.2 28.4 69 0 27.3-9.5 50.4-28.6 69.5S638.1 372 610.8 372c-27.1 0-50.2-9.6-69.3-28.7s-28.7-42.2-28.7-69.3c0-27.3 9.6-50.5 28.9-69.5 19.3-19 42.9-28.4 70.8-28.4zm-1.6 54.9c-11.4 0-21.1 4.2-29.1 12.6-8 8.4-12 18.5-12 30.4 0 11.8 4 22 12.1 30.4 8.1 8.4 17.8 12.6 29.1 12.6 11.5 0 21.2-4.2 29.2-12.5s12-18.5 12-30.4c0-11.9-4-22.1-12-30.4-8.1-8.5-17.8-12.7-29.3-12.7zm183.6-50.3v186.6H739V180.7h55.5zm106.5 0l-49.2 84.6 48.9 102h-62.3l-42.2-103.1 47.9-83.5H901zm78 0v186.6h-55.5V180.7H979zm37.4 186.6V246.2c0-21.2 6.4-38.2 19.1-51 12.7-12.8 29.6-19.1 50.8-19.1 21.1 0 37.2 6.2 48.3 18.6 11.2 12.4 16.7 30.2 16.7 53.5v119.2h-55.5V248.1c0-11.4-4.1-17.1-12.2-17.1-7.8 0-11.8 5.7-11.8 17.1v119.2h-55.4zM1268 262.7h52.9c11.4 14.1 17.1 29 17.1 44.7 0 18.2-6.7 33.5-20 45.9-13.4 12.4-29.8 18.6-49.3 18.6-25.3 0-46.8-9.6-64.5-28.8-17.7-19.2-26.5-42.7-26.5-70.3 0-27.7 9-50.8 27-69.2 18-18.4 40.5-27.6 67.5-27.6 9.2 0 19.4 1.9 30.6 5.6v55.5c-8.8-4.1-16.7-6.2-23.9-6.2-13 0-23.7 4.1-31.9 12.2s-12.4 18.6-12.4 31.6c0 13.2 3.8 23.7 11.5 31.4 7.7 7.7 18 11.6 31 11.6 8.3 0 12.4-2.4 12.4-7.2 0-3.6-2.7-5.5-8.2-5.5H1268v-42.3z" fill="#f46767"/><path d="M304.9 441.2v53.2c-4-1.4-7.1-2.1-9.3-2.1-4.2 0-7.8 1.6-10.8 4.6-3 3.1-4.5 6.8-4.5 11.2 0 3.7 1.6 8.5 4.9 14.2l4.2 7.4c7.7 13.3 11.5 26.2 11.5 38.6 0 18.1-6.4 33.5-19.3 46.1-12.9 12.6-28.6 18.9-47.2 18.9-8.9 0-17.8-2.1-26.5-6.2v-54c5.3 3.4 10 5.1 14.1 5.1 4.8 0 8.9-1.4 12.1-4.2 3.2-2.8 4.9-6.3 4.9-10.5 0-2.7-2.6-8.7-7.8-17.9-8.3-14.6-12.4-29.2-12.4-43.8 0-17.6 6.3-32.7 18.8-45.5 12.5-12.7 27.5-19.1 44.9-19.1 7.5.1 15 1.4 22.4 4zm154.4 96.2l58.1 1.5c-3.8 30.1-14.2 53.3-31.2 69.7-17 16.4-39.2 24.6-66.5 24.6-27.8 0-51.1-9.3-69.8-28-18.7-18.6-28.1-41.8-28.1-69.4 0-27.8 9.5-51.2 28.6-70.1 19.1-19 42.6-28.4 70.6-28.4 27.5 0 50.5 9.3 68.9 27.9 12.8 12.9 21.8 30.8 27.1 53.7l-59.5 4c-6.7-20.4-19.3-30.6-37.9-30.6-11.8 0-21.6 4.1-29.3 12.3-7.7 8.2-11.6 18.6-11.6 31.3 0 12.2 3.8 22.3 11.3 30.3 7.6 8 17.1 12 28.7 12 11.8 0 21.1-3.5 28.1-10.5 7.1-7.1 11.2-17.2 12.5-30.3zm155.3-28.7v49.2h-15.4v70.7h-55.5V442h55.5v66.7h15.4zm64.9-66.7v186.6H624V442h55.5zm125.8-4.7c26.4 0 49.1 9.6 68 28.8 18.9 19.2 28.4 42.2 28.4 69 0 27.3-9.5 50.4-28.6 69.5s-42.2 28.6-69.5 28.6c-27.1 0-50.2-9.6-69.3-28.7s-28.7-42.2-28.7-69.3c0-27.3 9.6-50.5 28.9-69.5 19.3-18.9 42.9-28.4 70.8-28.4zm-1.6 55c-11.4 0-21.1 4.2-29.1 12.6-8 8.4-12 18.5-12 30.4 0 11.8 4 22 12.1 30.4 8.1 8.4 17.8 12.6 29.1 12.6 11.5 0 21.2-4.2 29.2-12.5s12-18.5 12-30.4c0-11.9-4-22.1-12-30.4-8.1-8.5-17.9-12.7-29.3-12.7zm212.6-55c26.4 0 49.1 9.6 68 28.8 18.9 19.2 28.4 42.2 28.4 69 0 27.3-9.5 50.4-28.6 69.5s-42.2 28.6-69.5 28.6c-27.1 0-50.2-9.6-69.3-28.7s-28.7-42.2-28.7-69.3c0-27.3 9.6-50.5 28.9-69.5 19.3-18.9 42.9-28.4 70.8-28.4zm-1.7 55c-11.4 0-21.1 4.2-29.1 12.6-8 8.4-12 18.5-12 30.4 0 11.8 4 22 12.1 30.4 8.1 8.4 17.8 12.6 29.1 12.6 11.5 0 21.2-4.2 29.2-12.5s12-18.5 12-30.4c0-11.9-4-22.1-12-30.4-8.1-8.5-17.8-12.7-29.3-12.7zm120.3-50.3h55.5v110.9c0 8.7 1.4 14.4 4.2 17.3 2.8 2.9 8.3 4.3 16.5 4.3h2.9v54.1h-14.8c-20.2 0-36-5.9-47.3-17.7-11.3-11.8-17-28.2-17-49.2V442z"/></svg>